<svg xmlns="http://www.w3.org/2000/svg" viewBox="0 0 800 420"><defs><radialGradient id="g"><stop stop-color="#2b176d"/><stop offset=".5" stop-color="#10132d"/><stop offset="1" stop-color="#05050b"/></radialGradient></defs><rect width="800" height="420" fill="url(#g)"/><circle cx="400" cy="195" r="92" fill="#161a32" stroke="#d13cff" stroke-width="7"/><path d="M360 235c-28-34-25-82 5-108 37-33 99-10 105 39 4 32-13 49-34 69-10 10-12 22-12 31h-67c0-12-2-21-7-31z" fill="none" stroke="#6defff" stroke-width="10"/><path d="M370 282h100M382 305h76" stroke="#b91cff" stroke-width="9" stroke-linecap="round"/><g stroke="#00d9ff" stroke-width="4" opacity=".7"><path d="M400 70V25M510 105l35-35M290 105l-35-35M520 220h60M220 220h-60"/></g><g fill="#d13cff"><circle cx="115" cy="120" r="5"/><circle cx="660" cy="105" r="5"/><circle cx="680" cy="300" r="4"/></g></svg>